<mxfile host="65bd71144e" scale="4" border="0">
    <diagram name="ページ1" id="w3t6GTjJkzPyckk8V7Ps">
        <mxGraphModel dx="1063" dy="598" grid="1" gridSize="10" guides="1" tooltips="1" connect="1" arrows="1" fold="1" page="0" pageScale="1" pageWidth="827" pageHeight="1169" background="#ffffff" math="0" shadow="0">
            <root>
                <mxCell id="0"/>
                <mxCell id="1" parent="0"/>
                <mxCell id="s6_PXn7Oxz1dGM2SB9rf-16" value="GitHub" style="fillColor=none;strokeColor=#5A6C86;dashed=1;verticalAlign=top;fontStyle=0;fontColor=#5A6C86;whiteSpace=wrap;html=1;fontSize=20;align=center;" parent="1" vertex="1">
                    <mxGeometry x="200" y="399" width="320" height="321" as="geometry"/>
                </mxCell>
                <mxCell id="s6_PXn7Oxz1dGM2SB9rf-20" value="Vercel" style="fillColor=none;strokeColor=#5A6C86;dashed=1;verticalAlign=top;fontStyle=0;fontColor=#5A6C86;whiteSpace=wrap;html=1;fontSize=20;align=center;" parent="1" vertex="1">
                    <mxGeometry x="240" y="160" width="239.99" height="200" as="geometry"/>
                </mxCell>
                <mxCell id="s6_PXn7Oxz1dGM2SB9rf-3" value="Users" style="sketch=0;outlineConnect=0;fontColor=#232F3E;gradientColor=none;fillColor=#232F3D;strokeColor=none;dashed=0;verticalLabelPosition=bottom;verticalAlign=top;align=center;html=1;fontSize=12;fontStyle=0;aspect=fixed;pointerEvents=1;shape=mxgraph.aws4.users;" parent="1" vertex="1">
                    <mxGeometry x="40" y="240" width="80" height="80" as="geometry"/>
                </mxCell>
                <mxCell id="s6_PXn7Oxz1dGM2SB9rf-8" value="" style="dashed=0;outlineConnect=0;html=1;align=center;labelPosition=center;verticalLabelPosition=bottom;verticalAlign=top;shape=mxgraph.weblogos.github" parent="1" vertex="1">
                    <mxGeometry x="200.99" y="399" width="39" height="39" as="geometry"/>
                </mxCell>
                <mxCell id="s6_PXn7Oxz1dGM2SB9rf-12" value="AWS Cloud" style="points=[[0,0],[0.25,0],[0.5,0],[0.75,0],[1,0],[1,0.25],[1,0.5],[1,0.75],[1,1],[0.75,1],[0.5,1],[0.25,1],[0,1],[0,0.75],[0,0.5],[0,0.25]];outlineConnect=0;gradientColor=none;html=1;whiteSpace=wrap;fontSize=20;fontStyle=0;container=1;pointerEvents=0;collapsible=0;recursiveResize=0;shape=mxgraph.aws4.group;grIcon=mxgraph.aws4.group_aws_cloud_alt;strokeColor=#232F3E;fillColor=none;verticalAlign=top;align=center;spacingLeft=30;fontColor=#232F3E;dashed=0;" parent="1" vertex="1">
                    <mxGeometry x="640" y="161" width="560" height="559" as="geometry"/>
                </mxCell>
                <mxCell id="s6_PXn7Oxz1dGM2SB9rf-1" value="S3" style="sketch=0;points=[[0,0,0],[0.25,0,0],[0.5,0,0],[0.75,0,0],[1,0,0],[0,1,0],[0.25,1,0],[0.5,1,0],[0.75,1,0],[1,1,0],[0,0.25,0],[0,0.5,0],[0,0.75,0],[1,0.25,0],[1,0.5,0],[1,0.75,0]];outlineConnect=0;fontColor=#232F3E;fillColor=#7AA116;strokeColor=#ffffff;dashed=0;verticalLabelPosition=bottom;verticalAlign=top;align=center;html=1;fontSize=20;fontStyle=0;aspect=fixed;shape=mxgraph.aws4.resourceIcon;resIcon=mxgraph.aws4.s3;" parent="s6_PXn7Oxz1dGM2SB9rf-12" vertex="1">
                    <mxGeometry x="242" y="398" width="78" height="78" as="geometry"/>
                </mxCell>
                <mxCell id="s6_PXn7Oxz1dGM2SB9rf-6" value="API Gateway" style="sketch=0;points=[[0,0,0],[0.25,0,0],[0.5,0,0],[0.75,0,0],[1,0,0],[0,1,0],[0.25,1,0],[0.5,1,0],[0.75,1,0],[1,1,0],[0,0.25,0],[0,0.5,0],[0,0.75,0],[1,0.25,0],[1,0.5,0],[1,0.75,0]];outlineConnect=0;fontColor=#232F3E;fillColor=#E7157B;strokeColor=#ffffff;dashed=0;verticalLabelPosition=bottom;verticalAlign=top;align=center;html=1;fontSize=20;fontStyle=0;aspect=fixed;shape=mxgraph.aws4.resourceIcon;resIcon=mxgraph.aws4.api_gateway;" parent="s6_PXn7Oxz1dGM2SB9rf-12" vertex="1">
                    <mxGeometry x="41" y="79" width="78" height="78" as="geometry"/>
                </mxCell>
                <mxCell id="s6_PXn7Oxz1dGM2SB9rf-2" value="Lambda&lt;div&gt;with FastAPI&lt;/div&gt;" style="sketch=0;points=[[0,0,0],[0.25,0,0],[0.5,0,0],[0.75,0,0],[1,0,0],[0,1,0],[0.25,1,0],[0.5,1,0],[0.75,1,0],[1,1,0],[0,0.25,0],[0,0.5,0],[0,0.75,0],[1,0.25,0],[1,0.5,0],[1,0.75,0]];outlineConnect=0;fontColor=#232F3E;fillColor=#ED7100;strokeColor=#ffffff;dashed=0;verticalLabelPosition=bottom;verticalAlign=top;align=center;html=1;fontSize=20;fontStyle=0;aspect=fixed;shape=mxgraph.aws4.resourceIcon;resIcon=mxgraph.aws4.lambda;" parent="s6_PXn7Oxz1dGM2SB9rf-12" vertex="1">
                    <mxGeometry x="242" y="79" width="78" height="78" as="geometry"/>
                </mxCell>
                <mxCell id="s6_PXn7Oxz1dGM2SB9rf-27" value="DynamoDB" style="sketch=0;points=[[0,0,0],[0.25,0,0],[0.5,0,0],[0.75,0,0],[1,0,0],[0,1,0],[0.25,1,0],[0.5,1,0],[0.75,1,0],[1,1,0],[0,0.25,0],[0,0.5,0],[0,0.75,0],[1,0.25,0],[1,0.5,0],[1,0.75,0]];outlineConnect=0;fontColor=#232F3E;fillColor=#C925D1;strokeColor=#ffffff;dashed=0;verticalLabelPosition=bottom;verticalAlign=top;align=center;html=1;fontSize=20;fontStyle=0;aspect=fixed;shape=mxgraph.aws4.resourceIcon;resIcon=mxgraph.aws4.dynamodb;" parent="s6_PXn7Oxz1dGM2SB9rf-12" vertex="1">
                    <mxGeometry x="441" y="79" width="78" height="78" as="geometry"/>
                </mxCell>
                <mxCell id="s6_PXn7Oxz1dGM2SB9rf-33" value="" style="endArrow=classic;startArrow=classic;html=1;rounded=0;" parent="s6_PXn7Oxz1dGM2SB9rf-12" source="s6_PXn7Oxz1dGM2SB9rf-6" target="s6_PXn7Oxz1dGM2SB9rf-2" edge="1">
                    <mxGeometry width="50" height="50" relative="1" as="geometry">
                        <mxPoint x="421" y="149" as="sourcePoint"/>
                        <mxPoint x="471" y="99" as="targetPoint"/>
                    </mxGeometry>
                </mxCell>
                <mxCell id="s6_PXn7Oxz1dGM2SB9rf-34" value="" style="endArrow=classic;startArrow=classic;html=1;rounded=0;" parent="s6_PXn7Oxz1dGM2SB9rf-12" source="s6_PXn7Oxz1dGM2SB9rf-2" target="s6_PXn7Oxz1dGM2SB9rf-27" edge="1">
                    <mxGeometry width="50" height="50" relative="1" as="geometry">
                        <mxPoint x="331" y="189" as="sourcePoint"/>
                        <mxPoint x="381" y="139" as="targetPoint"/>
                    </mxGeometry>
                </mxCell>
                <mxCell id="s6_PXn7Oxz1dGM2SB9rf-35" value="" style="endArrow=classic;html=1;rounded=0;" parent="s6_PXn7Oxz1dGM2SB9rf-12" source="s6_PXn7Oxz1dGM2SB9rf-1" target="s6_PXn7Oxz1dGM2SB9rf-27" edge="1">
                    <mxGeometry width="50" height="50" relative="1" as="geometry">
                        <mxPoint x="591" y="259" as="sourcePoint"/>
                        <mxPoint x="641" y="209" as="targetPoint"/>
                    </mxGeometry>
                </mxCell>
                <mxCell id="kKrSRofjX6ScUvVQ4irP-4" value="" style="endArrow=classic;html=1;rounded=0;" parent="s6_PXn7Oxz1dGM2SB9rf-12" source="s6_PXn7Oxz1dGM2SB9rf-1" target="s6_PXn7Oxz1dGM2SB9rf-2" edge="1">
                    <mxGeometry width="50" height="50" relative="1" as="geometry">
                        <mxPoint x="241" y="309" as="sourcePoint"/>
                        <mxPoint x="291" y="259" as="targetPoint"/>
                    </mxGeometry>
                </mxCell>
                <mxCell id="s6_PXn7Oxz1dGM2SB9rf-18" value="Repository" style="verticalLabelPosition=bottom;html=1;verticalAlign=top;align=center;strokeColor=none;fillColor=#00BEF2;shape=mxgraph.azure.git_repository;fontSize=20;" parent="1" vertex="1">
                    <mxGeometry x="319.99" y="558" width="80" height="80" as="geometry"/>
                </mxCell>
                <mxCell id="s6_PXn7Oxz1dGM2SB9rf-19" value="" style="endArrow=classic;html=1;rounded=0;exitX=0.5;exitY=0;exitDx=0;exitDy=0;exitPerimeter=0;" parent="1" source="s6_PXn7Oxz1dGM2SB9rf-18" target="3" edge="1">
                    <mxGeometry width="50" height="50" relative="1" as="geometry">
                        <mxPoint x="510" y="660" as="sourcePoint"/>
                        <mxPoint x="359.98572972972977" y="321" as="targetPoint"/>
                    </mxGeometry>
                </mxCell>
                <mxCell id="s6_PXn7Oxz1dGM2SB9rf-37" value="GitHub Actions" style="edgeLabel;html=1;align=center;verticalAlign=middle;resizable=0;points=[];fontSize=20;" parent="s6_PXn7Oxz1dGM2SB9rf-19" vertex="1" connectable="0">
                    <mxGeometry x="-0.1261" relative="1" as="geometry">
                        <mxPoint as="offset"/>
                    </mxGeometry>
                </mxCell>
                <mxCell id="s6_PXn7Oxz1dGM2SB9rf-21" value="" style="endArrow=classic;startArrow=classic;html=1;rounded=0;" parent="1" source="3" target="s6_PXn7Oxz1dGM2SB9rf-6" edge="1">
                    <mxGeometry width="50" height="50" relative="1" as="geometry">
                        <mxPoint x="427.1099999999999" y="280.2203241531603" as="sourcePoint"/>
                        <mxPoint x="730" y="460" as="targetPoint"/>
                    </mxGeometry>
                </mxCell>
                <mxCell id="s6_PXn7Oxz1dGM2SB9rf-22" value="" style="endArrow=classic;startArrow=classic;html=1;rounded=0;" parent="1" source="s6_PXn7Oxz1dGM2SB9rf-3" target="3" edge="1">
                    <mxGeometry width="50" height="50" relative="1" as="geometry">
                        <mxPoint x="260" y="520" as="sourcePoint"/>
                        <mxPoint x="292.86" y="280.3801275068307" as="targetPoint"/>
                    </mxGeometry>
                </mxCell>
                <mxCell id="s6_PXn7Oxz1dGM2SB9rf-36" value="" style="endArrow=classic;startArrow=classic;html=1;rounded=0;" parent="1" source="3" target="s6_PXn7Oxz1dGM2SB9rf-1" edge="1">
                    <mxGeometry width="50" height="50" relative="1" as="geometry">
                        <mxPoint x="427.1099999999999" y="318.4886232988423" as="sourcePoint"/>
                        <mxPoint x="1080" y="620" as="targetPoint"/>
                    </mxGeometry>
                </mxCell>
                <mxCell id="kKrSRofjX6ScUvVQ4irP-3" value="" style="endArrow=classic;html=1;rounded=0;" parent="1" source="s6_PXn7Oxz1dGM2SB9rf-18" target="s6_PXn7Oxz1dGM2SB9rf-1" edge="1">
                    <mxGeometry width="50" height="50" relative="1" as="geometry">
                        <mxPoint x="600" y="610" as="sourcePoint"/>
                        <mxPoint x="892.98" y="600" as="targetPoint"/>
                    </mxGeometry>
                </mxCell>
                <mxCell id="kKrSRofjX6ScUvVQ4irP-6" value="GitHub Actions" style="edgeLabel;html=1;align=center;verticalAlign=middle;resizable=0;points=[];fontSize=20;" parent="kKrSRofjX6ScUvVQ4irP-3" connectable="0" vertex="1">
                    <mxGeometry x="-0.1227" y="-2" relative="1" as="geometry">
                        <mxPoint as="offset"/>
                    </mxGeometry>
                </mxCell>
                <mxCell id="kKrSRofjX6ScUvVQ4irP-8" value="" style="shape=image;verticalLabelPosition=bottom;labelBackgroundColor=default;verticalAlign=top;aspect=fixed;imageAspect=0;image=data:image/svg+xml,PHN2ZyB4bWxucz0iaHR0cDovL3d3dy53My5vcmcvMjAwMC9zdmciIHByZXNlcnZlQXNwZWN0UmF0aW89InhNaWRZTWlkIG1lZXQiIHZpZXdCb3g9IjAgMCA1MTIuMDAwMDAwIDUxMi4wMDAwMDAiIGhlaWdodD0iNTEyLjAwMDAwMHB0IiB3aWR0aD0iNTEyLjAwMDAwMHB0IiB2ZXJzaW9uPSIxLjAiPiYjeGE7PG1ldGFkYXRhPiYjeGE7Q3JlYXRlZCBieSBwb3RyYWNlIDEuMTEsIHdyaXR0ZW4gYnkgUGV0ZXIgU2VsaW5nZXIgMjAwMS0yMDEzJiN4YTs8L21ldGFkYXRhPiYjeGE7PGcgc3Ryb2tlPSJub25lIiBmaWxsPSIjMDAwMDAwIiB0cmFuc2Zvcm09InRyYW5zbGF0ZSgwLjAwMDAwMCw1MTIuMDAwMDAwKSBzY2FsZSgwLjEwMDAwMCwtMC4xMDAwMDApIj4mI3hhOzxwYXRoIGQ9Ik0yMzEwIDUxMDkgYy01MDIgLTU1IC05NzQgLTI0OSAtMTM1NSAtNTU2IC0xMjkgLTEwNCAtMzQwIC0zMjEgLTQzMyAtNDQ1IC0yNjUgLTM1NCAtNDM0IC03NTggLTQ5OCAtMTE5MyAtMjIgLTE0NyAtMjkgLTQyOCAtMTUgLTU3NSA0MiAtNDMzIDE4MCAtODMzIDQwNSAtMTE3NCA0MTQgLTYyOSAxMDQ3IC0xMDMyIDE3OTEgLTExNDIgMTQ3IC0yMiA0MjggLTI5IDU3NSAtMTUgNDMzIDQyIDgzMyAxODAgMTE3NCA0MDUgNjI5IDQxNCAxMDMyIDEwNDcgMTE0MiAxNzkxIDIyIDE0NyAyOSA0MjggMTUgNTc1IC01MSA1MjQgLTIzOCA5ODggLTU1OCAxMzg1IC0xMDQgMTI5IC0zMjEgMzQwIC00NDUgNDMzIC0zNTQgMjY1IC03NTUgNDMyIC0xMTkzIDQ5OCAtMTIxIDE4IC00ODcgMjYgLTYwNSAxM3ogbTkwOSAtMjM0OCBjMzQ3IC02MDcgNjMxIC0xMTA1IDYzMSAtMTEwNyAwIC0yIC01NjkgLTQgLTEyNjUgLTQgLTY5NiAwIC0xMjY1IDIgLTEyNjUgNSAwIDggMTI2MyAyMjE2IDEyNjYgMjIxMiAxIC0xIDI4NyAtNDk5IDYzMyAtMTEwNnoiLz4mI3hhOzwvZz4mI3hhOzwvc3ZnPg==;" parent="1" vertex="1">
                    <mxGeometry x="240" y="160" width="40" height="40" as="geometry"/>
                </mxCell>
                <mxCell id="3" value="" style="shape=image;verticalLabelPosition=bottom;labelBackgroundColor=default;verticalAlign=top;aspect=fixed;imageAspect=0;image=data:image/webp,UklGRiwhAABXRUJQVlA4WAoAAAAwAAAAJQIAJQIASUNDUMgBAAAAAAHIAAAAAAQwAABtbnRyUkdCIFhZWiAH4AABAAEAAAAAAABhY3NwAAAAAAAAAAAAAAAAAAAAAAAAAAAAAAAAAAAAAQAA9tYAAQAAAADTLQAAAAAAAAAAAAAAAAAAAAAAAAAAAAAAAAAAAAAAAAAAAAAAAAAAAAAAAAAAAAAAAAAAAAlkZXNjAAAA8AAAACRyWFlaAAABFAAAABRnWFlaAAABKAAAABRiWFlaAAABPAAAABR3dHB0AAABUAAAABRyVFJDAAABZAAAAChnVFJDAAABZAAAAChiVFJDAAABZAAAAChjcHJ0AAABjAAAADxtbHVjAAAAAAAAAAEAAAAMZW5VUwAAAAgAAAAcAHMAUgBHAEJYWVogAAAAAAAAb6IAADj1AAADkFhZWiAAAAAAAABimQAAt4UAABjaWFlaIAAAAAAAACSgAAAPhAAAts9YWVogAAAAAAAA9tYAAQAAAADTLXBhcmEAAAAAAAQAAAACZmYAAPKnAAANWQAAE9AAAApbAAAAAAAAAABtbHVjAAAAAAAAAAEAAAAMZW5VUwAAACAAAAAcAEcAbwBvAGcAbABlACAASQBuAGMALgAgADIAMAAxADZBTFBI9Q4AAA0kBWkbMJt/3V9BREwAiryENFxp2bbXiZRVMFkFEwfEAVkFFAUHBQUFpQoKCqAKAAVTHAQHQcFmFOwVYDjMNt/3fvMrIiBIkhu34VFiYAiIqIPALl8gIds/uYnqgFkFxAFx0K4C6oA6ABSwKNjigDpoHaQOgoOggEHC5JjjP/89/t/DEREQ3EgSGjW329fMzEIkFEgPL1CsV6OMUVrrN3W1dP1H7v5T4VYe42dUIcYY0z/Cb2X+mdRWmzdj0vP46qN7K9f6TSujtdYmhhjOVz3ZPqfaWD3Q1vzXf1yb96ue8fEUfQhRmudaa96t7tOF3D7mJoZT8B74U3v1HFk7sD1eM83AWKv8qQtedLpDk8kXcuCM7cLRe3Etbc6lL1dul+rM0Nru1PkgpdSpGLh7oU92qgNnVXf5mMnnt4KAa3dDq/2hC1JZ3YqhI+QtsSOnugMwq16+S8zQPY5/KHAzsuHYdZKwW1D20pju0EUBSKajh1k2RWadb1N0BL7EErkOT1y4CNCXkCrAXSI1QSZQfPVFQrLAH7YgJ9vFiPZpK0auazt49ctvQuzIy7Ympk6ekNUvb1c4DgTVVR1V/YKXaZzeqGMbBXGiXgcsR9W9+WRGvQrtFkfb8+957wjPyS+mIRxNH00sR6atz8Q0b694wSOZXl0CIzDDIL4Co0tGDuuIm4xc1R1kI45n+jKAbMT0AK4R4wOYRtzPelz0I89iD7ZodC9mnvg9Dc3/zsdZhCyWr9FEjObjV9wGNnyX23y8qx8XHG5JCcWCP53UW0iDZZY2NPwJeJzVGEQSiA84fFQPnQDh47BC4qwNMHhEWYw9Dmdhg1vtPAYnze9mVLCc1G75f0WfPAuPLMuOA/fRMkiUmt1ta86j5QYoen45SaAN21zRQL1QIQFtkpB16Q+HcPVFCpeQ2zDwS0oFmZBVbGaibipoQnaxGdSEwxmTwuJbtyaAsrMjQcAs5t3v6rWKEQT8uYz8kWYKwVpOE1PAqzfgnK1XnO1NSAAejrXRi4iBGj77GMqkxdR85reBhb/Icr1liQp4U5lW1uKGUDOK4GGH7I2SFjN8ESX2ubmdCQBmJfEeqSfqD0Qq/hSmgGQqHmsuoru7iTemJgazCB86wyVrm8xjap+hvHXhyYfwKCSMeFgmWuJDzsqoexVd82y4RNe8ntPtMuG8SNfSJY88kAH4eiwT/stNB5YmgLtTvWikRu4L9VQHGbChF8ODvZGK4ZWK/Ep3Ovux3hLahwr4ujluKe3gNzrZAPBbqEnsv9SzFWmW4F9NYxdBo7ALodHXxdBIc3SxJoYWtnR6hd8pZV0YjSjO6EIHCKOtPVHEojjqR6IcCaJBX+q4U467WSCHK7/sYxFKE0qn55uRGikvCw6dovhjFgkJ41HoVCW8MzrKSkmmFm5OBmmkZFNLTQSVNNfPFlFQSSSsuBMlntq0XjAoHi2Z7yLkDxipB1UscM04isghBQvNOHfrUqqumJNhXTr+fq0y/oDCtZMl89Xm4CmgFn8yjN+xLiUD1SxzCz8bBqbmaxGUgc8tDRYERBGsg9Cw3vweluywXxRZoxwXnkVeMF5CEDGsWQaxeiUvpUwT4jbkp/TTobNUN1VqOtNlNovq2/0iMLTmvM/kLZgo4dVNnYfOF25RcjrNLFPaSF5Ekl3lEHWBWnKDYlvf+/Khbqr4dGb9l8mw2Ok8H5nwXJ26/suEKFrEfGTSg377LhOkKAeZCF0tei+TosFiKUpZn4Pbtp88UuJlFi48vYz/bdhH0vqegjl3Pfk/o8Z+7y483Kt7Em8tAJVPL0Ons4aOkmTr0pYNAlUf4joFUzYIDl5fjVVLFPFmDrOWmLa7qOn+9KjS7bWo89s8a4wb1fnVNex6hO1eV41pj6CJLXuEu1862MB0GhSwibff9/XZxtj6rvbVvYps1rX0Kls9zlKofH2tutpxQmhKMjTVZUtTVbY11WRbU0W2NtVja1M1RoRuAuxNlTpHFieDx+vctQ412OLYHX0FNvl2txfn1ua4PUhT2GdzuN1eXhudnoSfn1Yrq1Pb1XHyLO7oiWY3S5jc0RONG37bHg3v5Mk+45zkFl4Muy8sqE2/XZ/k2PZoXSe9st0dPdlswy/cyyTPhvWThbLNv63Psmx631cy2/a+r+RkfN9X5l0F+yc3fbnlF4fl31soNmnaOQCwaiCIlz/vPMtVW7/VWKibAAxkqeZAlmoOZKkGQZZpEmSZJkGWaRRkiWZBlmgWZHYLsmUB7eBh0NnfVZtj9ssKMGzrc+5EA7ZHGkb+43GHA3LvaV3e/S+Ah0CJ4UuH7TszaXhIzluVCJmXSUgiA/Gca3HIYSYC6QgTuHpJV1IxZQ4emgNuSIMKSrcFqAjkVDLh1HDh0iSuR+9TES4orslA/OkogItEMKb4I1CfjFDh5zV9HGQQGl5e7JI8x2waNiY0MmNfXEM0wkZiTLMhl5oOxB1fMlzf5W46psWD0YoKLK9Kv2Q6iBLE1mLDz5tX8oHlRMdSs4M5PCbv58yHnIOPQj7Wmq0xiTHCR+K0Fh/48UbJNO0mpGxWScjfBEIKpwghRg0n08eR3Rfvq0tGJkoEJymMYGRE5MSI/EvJ9KFEQJISGBI4ToBIm/GCEklJJSQbJbqhJPKxZKOkf/SBZHz43b79x9AwMj7j7PaOkd0BH0nE6yUieIeE38JuRqYARtYKZZT4NJD0jyDh0Iv+SAJOBCMpYyEhelqKkbWCJGSamtGETJCI10l8JEnp248lCyHywgIif33ImwKMdKLfL/DACyfTVEjJbkAqZ2V8YCZ8w8eYSzqwaEhf8rHWLICJoGMtSrD09Bwdju+S2ODIMa/YqIRk6mJgY60IGkfH7qWfR4aOncJ5zUZmLECG5gTRRDIQJzYyY64vF5mJS3XDxZQCF5FEW9o3ZLQF4n4eGJqJwuSXVgrHLRWR5I3POSYiPnkip2sqXBooAsnnn3Ai6QATlTm/yBsqXJq0U8MF89AcSP+SCk9IOQEuXJpEC6nfEKHzAkS0BbICQEyZaB0Nqy7WymgO8MC5kohVsxbdOCCmrEWHFodBSOCQj+cdEVOm7cvCKJEs6BLJwlQkSRhlkgRdJkmYCiUHo1RyoEslB1OxZKANXX5ijw/GRvZbCeXoGwJeWxhGXSxPNwTERb7ltgRUy1zAG/vrQeTkzmvzQuCHk8zJ7XcOgoj9rZpiQ1fq9J5urZ8t9k3nWgqyy1uN9s8WS0YgW8T3JSBbxvclQAv5vgzsk3hvQe6WhS9lq6W/V0HO0ZP975Zf+LtIIfHzbCV5+NacOpyoOM1l/7eooydxJK/KqU4lfxR29OR+lHb0JI7kEUKjkVeL5P17NZL2sR5J+1iRZH2sSbI+ViVJH+uSpI+VSc4kNCJ0X/0+GQsZM0cKru5Gxr/XRziUEj5qOPXlXIun9OADdNCA2Mr3cNBx8qvCSPc4ahW0rqR7jpqHKuNke4w1BdCw9H7GPkB1S+88kawLTR9hvtQCdsHGEdaxD6HC0psaqR73yj7GbCPUMr69DFUlkj1HWYl4z1Hj/MoX7VXSRrLyRH69v70YdSXyPKevq2clV5kys6awwtyo0NsLWjRSZRfVmTWnUq4ydQ0CkcoUmjWLjSxlvRbJVKawQTC1ApUp9fRkKMsATm4bicrs1kfqeVDbXS+u/6JGS0+pzuXqpKdT53J5+7PsXK0fXaBy61eQvlRbv+OdFpyvrF6EtsK39Hc7wb2LzMKVngqtbGNu70JpZKb05Rxx6eT3sOT4OjQSU8pyaf0spQjjqX95oUCTSMqAH94/c7l5EEmVkZWFRb7Xu9GigvEy/nYeJAXqPRxnBur9KuVlQWoGstk+4DO/7HFjZGShzh9G3BgJ9dm9K//JMD4mASRqG4lZz5IiOEvHX03F5S9/y8bf+u/dCcjcnysk47B7bgpyZZJKC0ohIVpd35+D7P3NElwjFmqRGiQgwTVCAWjomYedFkoXS6Ml/iApPlt8yGMnC1Vh/EYY5akxEeDvcSONTliTTyeDSpIOaUQGlfSrkkL/p8hrYuj0NSF0CpsIOoXtvJGFI9Kcot8Jbdh3Qtv6Q6NOLL7EGdFEOW4M5n2c5kkgjaBdI2OCZ2rGQKP4VtM8V40lv9C7bFD9SpUF1GW/JjuGm7kS6LLuCJ+y+e8KZzbg7/OTRiNL8NmAnHkvqJ+3VbszoLukGLABuPMAMVXoeuwe/kq3R1th63J/fwKpNw+s/frf3Tkk3/z6wwBug2qaAFMb9f2XjQfzRQWuDT5MnBsNJ4TH02xu1wnYA3MTC1/zOZ9kWrh61xn7Ns9/Nzgm3vGZWWUmFQdRjb95nZYI5lRbBr/Ry88qZyEXTAuT8V5bOVhJRW4AYIccsrfwz08xR8heC5szP2M2OfgzraDzxqwQNuKZXyFoUpaFSNn8klL9cAjrL5sT2BbuLEbYzDfY5I8psAkCBohSfBWb4RICnr64jwGBG1ODkFguTzsDTdoNRN4wLkqDylkp7YbiLqwO6SR4zkLhpGMCbfDIqF4acQ7auJRlYXEf6gBLEjGdGCCcvAzf8Q7uHZMPFLii1SO6FRAfSwQG+xuuCJ5BU7AfLIO0fWMRK4fSiP+3OA1YH4E1YHsE2IDlEWSDlI+zOwJtsL3k42xu21AvV3xwm5HmD9+9xe7QG5xs4pU43JQA4KCr3cQxFgZ5lUVlM1wIKTBiSb99ikqELzDiZ0ODPzy0DaNpkzJyRvS7dVSvVuQy8qs6DxN4vKsPq/rQsBIFQas+KkhPpoJ6sSKZah38JSenWfJMoIyupzZcBFRLIBfQKwFeQGCYfAeRgV7gXZGyLcok+2OnSK+cAGP7o3FDRxQe030nPQRxWt4dg72YJebrenwSj4F/zfP7o3Ija4hY3k4v/oZ/dHTw2rrkJvNrP+2Zooa4oXh9d1TWDVyeSdSpeyFElsmq1506a927y0g3HL1/CvOX0cfs3FnjBlb3/8v1QFdmqqE7eWWtGRjTy0/lOXhYU+w84xQfTiEaY/VA257Yi6eI9ncrp5Dl9qEyRhv9ftX7/n88hvAZoo//056oQuoQQzxf9YzWWhul37RW6roQ3l8Mw83zqIL6jFdLQbH+TCoAVlA4IEAQAAAQlgCdASomAiYCPm02l0kkIr+iINGpW/ANiWlu4XEeQv6L+B3kjHc018AfoB/APhKlb/NvwA/QD+Aaqr+AH6AfwC1/8rX/Y/wAvdNDP1X/oH5Efsl42/2vonPLCQ76s/v/6/+3vx+/bu8/gBfi/8r/WDfqQAdSTqWZAH8e/qfoh3pn3n/aewH5LH8t/0f7d/ovR9+e/5j/x/6r4CP5r/WvR1///s6/bj/8+4P+vX//D/OtFt9j2QNasKJhbCYrEuWyw+Wd8ope4s75QiGG2ZFEOLNpsu1BOcKqod6iHFnfKKXiBNxN4s75RS9xZtNl5E6RYAUQ4s75Qfa1gIFD5RS9xZ3yil5BprRnow+Wd8onoqe4s75RS9xZ3yg/yVaiI1wMPlnfI5SfrIohxZ3yil7izabPaNN7BRd/L9asKKXuLO+UUvcWdtwUovsxgf+HDb92tCl7izvlFL3FnfKKXhzqwCzLxvFnfKKXuLO+UUvcWd8jp+j06V+HFnfKKXuLNXYWX0EtRDWxQsbxZ3yil7izvlE6oJ3GmgJtUXgUKEsFtbMiiHFnfKKXuGmJz1TzYKAi8Cil7TwdzztSNLb7VkUQ4s75QY8IlN6pV8zrb5RS9xXnzLapvShPDPPay0j8HyWFevXcbGOUU7ZNQTolnwDGgQHUmAvJrgFkx3ZFXcZjUHkbyQsxEg4s1uLvlMJWQ4WBVCfmBPVDBSYnjH97P/AyI+nGIeCUK9JdsgBpy5x/Wvj6ehGcxneBRS9rNMCuQiU8p54WB5Tow4be/Bc/M1SdSz5g2IxMf3dg0hCEjRHekp2zX4cWlXn/se5/5/dBP5yhf+jw3l2OH07t21RMOa/iQGwohehPJLMckkji5unVtbWkk+Wd8+UrIah5nsVZP9arnAYWUZtmlh+TgODBgFBam+WQjLsA7URD2oHObnWQ1vka5+JdnRjWi2+1Y/GnU86fIkGOzXQIQUzdW0onVBqwO69wDslie1YmqHUrLiUOYzmWOCdRjFVuqWMRNSAyNaLbWL0TVkFWfvVpQGS79mJikXBPNVIoGWp6XzxKSzcao9smQ20ULrli/i/Urnls/83CFXnVYk6S4ohw1mHfbnh94avQIMBRCzIRhPvGjfx48dDRbMYamAlA5+Vx9f02cmqiWZlUzBRK+quxQjFHGOP3ZeAESPpAN7EbmFmx6WRFX8F7mtWFFKhz8PDEgiGuKLxSFL41+5M23K/cwKQovAj8TJnvOjJMfLO+UUvcWd8opWRVW0ope1MW2oE48BwV+HFnfKKXuLO3iIS72PR9TIohquf6K2KiP9FL3FnfKKXuLNkdMws2wAohxZ1/y4W+1ZFEOLO+R0/V6vrukK1otvtWRRDizvlFL3FeMW2ueRrRbfasiiHFnfKKXtX/O+Rtra7r0kv4qLwKKXuLO+UUvcV4OGRDiu8cC4xqgWd8ope4s75RS9qH/S/nfKKVZY/KGyFalqIcWd8ope4s2MR2+1ZFEDHqtfisSHQFeBRS9xZ3yiejJdxZ3yil5BpyZV4hGZe4s75RSt/DhHg6O32rIohxZ3urO3Z303DVnhuLO+SOfb1qIcWd8ope4s7fwMiZKTxEuUFYUUvcVwAA/qGQlpg//+DJ0Vd1BSlVY59G8DOea7Ys4///wxghBXYJD4JT+OKGQcJ+xgBQbAjv44oP+OMpsROJATKYSHair2Oveo2rUSJ+g+WjlJChTMEzwpuy5nJghOJHfxxQwNMElKDzl6FxQLfLW4V4ncQMn4hiFQRxNyRGHInPg6SqXpDjRCSIyYdwPprp7wc+ZMyfX5B+TA0M3sRb7z1W4udzPbvTZ+yIvA+f1qQQzu1/ifQ23aizLMRjtdopPfyM/+7uZKxoMJ2d2f+MEv/qpS1EcZrn3wdgAtEfbtpIEPu4qQ2VpQzd2aeqap3i++JR8WKmEu7UcdFtDVq12luSJpgUcyGoJUA2j/z9nmzWniyXGbMXSXAp1WD/4zqbnA7lAAxhwGc6M/772Hj7NwZaqt/0vMBJ223iaPQSUUK4SwulskJOKlQhKicIjBOpwxwm8PdHsQu0FQZX4C+8M0+Al/7TryQZqENk7Depo4gUcfDvSoEfDHgYho25Mk3PJ57GFzQJvD3PZhp78U9lu3exo1qCyDNokcLF3K9ftjp0Y9sB4ut9o0zvROQBpNihJ9LsocLqxo9H7Xv1VD4TEfm8CPDWCv+zzVakfR4WCteff5Gl6jspWMSY56qSnEQVZDBe9/yNGhYtgyRBDS+8OTMq0dh8agXljhbPPDpO59sQCBvjaNTc/7Suk68DYdUDgk+tWSK22Sxdw+Mu2FQmNt9LbXBqJojgjY/hKheAnhycQ2jJFe3p7jvAuoKcJoIJkzqoecYFzGUPXzHAyGldIanm8zbSVPqWaXGcZFzGfrEfx0KXdfLn6F0m6tjYL/+/eM4NN1meFh/JfqkjHDh9pw9qkAkCZSaoAWInvNwNlxlGJ1XAeF59sTb6qaAaB9rX2sp9ijv+L8iHsf1Nc/obtCDsxfoPtxy0pnb1FgPNDP5QcPs/iOHp3ts6lHPfCWO14t8vr5JKmLGQ5VHnBG3Aq311iMMFY4o9K3pJl4ZPucDOtxQFGLATZYSXOOxL2IU50C82TwSDrGjZJofMK8UIyUMxXLG7rmVDJ7e7uCLz5Lk/P4PL2879V2wxPgAHnQ6h8ZIThsHOJxOrVu0DNkpi+VALxYT3RGvJWh42QiYvQQMnbMm76lZvqLo5uvNvQKJvztmul80ZjEw3YM+p2RImAj/Z9uA4RWDoyrrXXEeTXaN6nug+JQu8kF8Vd4sioSNCy+8VCKtUsl35AK28+zT4O2yFf2nF0NpY2rpgD5q4FiO8mtgdJLXD2vg5AtHpGziWZ1z/o6j9Y6MYZj+5xcSFDDQbWgswedKyTjV6buLkEHCpNr9GhhLwCsiEweCjmkfGdSVWqiFdHnt4zQAmhEirdRbczEwou6fg0vgAlQpgG0wjwi5kwm8iq79rtuPbh3Zae+jegpg2VD+JFp2NQ6sShmnnmE4d8tlCP6dAx20jTNqH8y3sx2EB/LmV+1E57HWYAUOblatuV3Cf36MfPpvk7vvGN3uCkBg95P9yAntfw3xiT6dTbvNmE5L6vx2N6kdyzrAIjM3MC14KYaZ/s41TkFvzLS9dm1U7X91/NL+60orQRn3JdehVp2ObOlgiK7fDfdRbL0rGWJE1UKIOA/nUucOw6QMiNrOOhUcZtF43amDpzd9o1IH04zeu1io76Eq8Cw4twSCTkqxY7z9vCdZXEBFK1dRV+hoK9tGj6+/keNMMoqVPVdIKlAPhcQS5OHSTjaMS4qa+28UceTy85wMyO0kFuwhn+Ij9xAZNGFhBhXG4oBDQPFZv8T2U06bNWuH5BuE/10R/S/zk1NZm+6Ooq1KhIlgZmzqfYmZnvieVi3tGnhnkSa+v5aLYygco1DKLBytJ2ZeVGVs/9wh3r3vxdAgErs/o4+2HEfG15NfjYNXLSi3l2YqEW1KT47v+88w0zSkQbxcXyCQ6Q2H98tBVLdh9DO3sJ5XUfl13oeOJ5Fw1rNQycDgTLE9eoRQFnhHfb/tLlnV0C55+Yfz+Y0xYXVwqON+hEo71Ly4aZH92NzgsgqOnmNd3KNKnz+Qh235tRDP5A/F24tcGFByFcFOZ4L2R/d3tP+pOt/efrfxpjFjAVqgxh4ZV/YMJW0nE7YLBVJ0XQxvx5Aw8sTbX7xXKeHdF5LZHP50YbG5BpxFaC2qXwnHDo/rmbQS2rgmHjWAIQovnQ3G9BOeUaM9rl+inBglBBGEmr1XgMwppuwYfI7hFEwuj0wBjvxOqfAdKUipDFJDBAuVE8G5pnuBpStjJGLafvNVyJRYRRzyXLwDhYC0Vw7Ufcc3Pv5elzqg31JdlwDyfB+EoJ99h/w16k/Pu/zP8GvMRDAx7unRsvGy8ZE2RYYrXPx7ReRHPe/8dJYbkjLptzvoN+8m89ydIfndNwHZOiNUpRxtNX+H6doIhMcMJHg+apMY4jVApIbE9HqXb71rO//1ecFasBrwC+5Cn6ie3jnzEM8P624kW6+wPPve7hjF12vKu3bDynhWIwa/CmMnvApL05RwB5F0LFSA0C5dPyiGbWNXoP1zb8CUfwWLe3KPz6qfpOpeW9Yk+09Wwj8e3mH6V7O0v8SmdHTEvvjJrzLfkCk8rEBbXaxgYO0SgCMsXhTFj/l6Vr0zRhPS/h6iJCWQWTf4i/75UnF32oZmRF1VM38LVvDEiZLBj+kU3KaZ3iLnfzf3imC6F+YP/RE2gy94T1tNsM+DKr/fZ3aEc9d414HEiCYO4H3cmKQTkFW5zV6Aah9Bs08aU+K52+/GTM+2j3jH1T6/hH94DQpUijUE9H9B6nClQiCmt00jnFXluybiOCITWMyVW//qPz/ygfLD6by54nRMlcI3/f5ZKXJpgvpDUq19RplC0uKSQGLcM7P9GCdp1xBLDhqxVWTszHnsDCT+Ln8SYahGdVPWY0esuHlAVfjTRr2ebhYwhUZgpB4MsCZUN1dImGXvtRpV4v3jqhZrCZELdr4FvbA4wFtqJE+sg4m2qA4r+YPYaY3PITiku67mJNKlXPW3mclKRviKPMf0S4PXM0OOCZf3bUxqTj7nDd7XZaoGBSa4uoDD5bFFFNRWJoIeaqWwf4///r3tCLiD4FeZEXlBLVJGGGi1GExv6mYRP0DvguP/zMD7NSYcY1ESE7C6VYnRKDh93NcuLDCzNdf9L1iMMRjbD8Bd3Gqifm611qkEs3EZ+rzVJhiv7NWLBTVpWMXr+c+2IA4eyJ4L3aT4omaTsI6V0IzBeXHuiPUW7zJojajF70Qir1hfmJm0exlg35qkLuH64+DzQecV61EGux4IucU9nKHWCfTcBKsy4WDKgr5Bdls78J2ieEVTx3LqzkOuwMNCvMjwsnGtVnGPj9U4XJ4kYV7a69FRN+8FLnnGWD4Ny/OKsK/FdhI5UY3YVSiGoQ3Yf/ifju4orWua2Yloc+bwztCz0VYS2p3qzCgml1RMIr5KEt8tMX7w7dngsHX52+bMvwv/So9hcFJUupfWGE3zAa/C9/TaqwRgx8HQueHAuQKuPGoo/5PAewXrA8PYkQyend/XIejg2CM8b6+MAK4CmmlVbgpmEm6p0i68eIW3jlEAcvDw0zoHi/ZtH/ceJqGnz+TlFStU8hxkdjgnpZu0ufb8UjtWmIzp6GV+PggfOfx+6ptIr4YrX0vTxdOki0tVlmOw7+rOABHhO+UKJCgpGLewSHAtI6enesVziSg6jqtyM+ePZaeuPPI1Yy2rE/TajvtNsVksxm+g3v1PO4Gz7evX5b2AIT1l5pIjZzrTic9KIHu3e9dQVxEOK5fKSb9TBYnNfyA2Qb6Q4i03F/bNC4jw6IAmHKT/8NK9ddeBiAASqMzBRU8WN8CuBm6VezaeB2/yLmvJwEkABNE3yAWpEMXque8DIKts+ifSbH6+g2oN4Kn//kXJaDikUKne4ZxIwcio22n2n///hVrynFd10tuWTEu799XgAAA==;" vertex="1" parent="1">
                    <mxGeometry x="320" y="240" width="80" height="80" as="geometry"/>
                </mxCell>
            </root>
        </mxGraphModel>
    </diagram>
</mxfile>